<?xml version="1.0" encoding="UTF-8"?>
<svg id="Layer_2" data-name="Layer 2" xmlns="http://www.w3.org/2000/svg" viewBox="0 0 822.16 213.31">
  <defs>
    <style>
      .cls-1 {
        fill: #231f20;
      }

      .cls-2 {
        fill: #00b7c8;
      }
    </style>
  </defs>
  <g id="Layer_1-2" data-name="Layer 1">
    <g>
      <polygon class="cls-2" points="35.71 60.06 0 32.78 35.71 32.78 35.71 60.06"/>
      <path class="cls-1" d="M168.12,32.78h57.58v114.98h-27.46v-8.5c-8.98,5.67-19.02,8.5-30.12,8.5-15.83,0-29.35-5.61-40.57-16.83-11.22-11.22-16.83-24.74-16.83-40.57,0-11.1,2.83-21.14,8.5-30.12,2.36-3.9,5.14-7.44,8.33-10.63,11.22-11.22,24.74-16.83,40.57-16.83M198.24,90.36v-30.12h-30.12c-8.27,0-15.35,2.9-21.26,8.68-5.67,5.67-8.62,12.82-8.86,21.44.24,8.5,3.19,15.59,8.86,21.26,5.67,5.67,12.76,8.62,21.26,8.86,8.62-.24,15.77-3.19,21.44-8.86,5.79-5.9,8.68-12.99,8.68-21.26"/>
      <path class="cls-1" d="M266.24,41.28c9.09-5.67,19.13-8.5,30.12-8.5h19.31v8.33c0,5.2-1.89,9.69-5.67,13.46-3.78,3.78-8.33,5.67-13.64,5.67-8.27,0-15.35,2.9-21.26,8.68-5.91,5.91-8.86,13.05-8.86,21.44v57.4h-27.28v-57.4c0-10.39,2.48-19.87,7.44-28.44,4.96-8.56,11.57-15.44,19.84-20.64"/>
      <path class="cls-1" d="M772.73,41.28c9.09-5.67,19.13-8.5,30.12-8.5h19.31v8.33c0,5.2-1.89,9.69-5.67,13.46-3.78,3.78-8.33,5.67-13.64,5.67-8.27,0-15.35,2.9-21.26,8.68-5.91,5.91-8.86,13.05-8.86,21.44v57.4h-27.28v-57.4c0-10.39,2.48-19.87,7.44-28.44,4.96-8.56,11.57-15.44,19.84-20.64"/>
      <path class="cls-1" d="M396.75,32.78h-30.12c-15.83,0-29.35,5.61-40.57,16.83-3.19,3.19-5.97,6.73-8.33,10.63-5.67,8.98-8.5,19.02-8.5,30.12,0,15.83,5.61,29.35,16.83,40.57,11.22,11.22,24.74,16.83,40.57,16.83,11.1,0,21.14-2.84,30.12-8.5v16.66c0,8.26-2.92,15.35-8.77,21.26-5.85,5.9-12.96,8.86-21.35,8.86-6.85,0-12.9-2.04-18.16-6.11-5.26-4.07-8.83-9.36-10.72-15.86h-27.99c2.36,14.29,8.74,25.98,19.13,35.08,10.75,9.45,23.32,14.17,37.74,14.17,13.23,0,24.92-3.96,35.08-11.87,2.01-1.54,3.9-3.19,5.67-4.96,11.22-11.22,16.83-24.74,16.83-40.57V32.78h-27.46ZM388.07,111.62c-5.67,5.67-12.82,8.62-21.44,8.86-8.5-.24-15.59-3.19-21.26-8.86-5.67-5.67-8.62-12.76-8.86-21.26.24-8.62,3.19-15.77,8.86-21.44,5.9-5.79,12.99-8.68,21.26-8.68h30.12v30.12c0,8.27-2.9,15.35-8.68,21.26Z"/>
      <path class="cls-1" d="M540.58,59.58c-4.64-8.29-11.03-14.83-19.16-19.62-8.14-4.79-17.53-7.19-28.18-7.19s-20.61,2.55-29.43,7.64c-8.82,5.1-15.78,11.94-20.87,20.53-5.1,8.59-7.64,18.37-7.64,29.32s2.62,20.99,7.87,29.66c5.25,8.67,12.36,15.48,21.33,20.42,8.97,4.94,19.24,7.41,30.8,7.41,8.97,0,17.3-1.6,24.98-4.79,7.68-3.19,14.18-7.91,19.51-14.15l-17.57-17.57c-3.35,3.8-7.3,6.66-11.86,8.55-4.56,1.9-9.66,2.85-15.29,2.85-6.24,0-11.71-1.33-16.43-3.99-4.72-2.66-8.33-6.46-10.84-11.41-.99-1.95-1.73-4.08-2.33-6.3l80.47-.2c.61-2.58,1.03-4.91,1.25-6.96s.34-4.07.34-6.04c0-10.49-2.32-19.88-6.96-28.18ZM477.73,61.64c4.41-2.66,9.58-3.99,15.51-3.99,5.63,0,10.38,1.18,14.26,3.54,3.88,2.36,6.84,5.74,8.9,10.15.99,2.12,1.76,4.5,2.34,7.11l-53.26.15c.55-2.04,1.21-3.99,2.1-5.78,2.36-4.79,5.74-8.52,10.15-11.18Z"/>
      <path class="cls-1" d="M729.21,59.58c-4.64-8.29-11.03-14.83-19.16-19.62-8.14-4.79-17.53-7.19-28.18-7.19s-20.61,2.55-29.43,7.64c-8.82,5.1-15.78,11.94-20.87,20.53-5.1,8.59-7.64,18.37-7.64,29.32s2.62,20.99,7.87,29.66c5.25,8.67,12.36,15.48,21.33,20.42,8.97,4.94,19.24,7.41,30.8,7.41,8.97,0,17.3-1.6,24.98-4.79,7.68-3.19,14.18-7.91,19.51-14.15l-17.57-17.57c-3.35,3.8-7.3,6.66-11.86,8.55-4.56,1.9-9.66,2.85-15.29,2.85-6.24,0-11.71-1.33-16.43-3.99-4.72-2.66-8.33-6.46-10.84-11.41-.99-1.95-1.73-4.08-2.33-6.3l80.47-.2c.61-2.58,1.03-4.91,1.25-6.96s.34-4.07.34-6.04c0-10.49-2.32-19.88-6.96-28.18ZM666.36,61.64c4.41-2.66,9.58-3.99,15.51-3.99,5.63,0,10.38,1.18,14.26,3.54,3.88,2.36,6.84,5.74,8.9,10.15.99,2.12,1.76,4.5,2.34,7.11l-53.26.15c.55-2.04,1.21-3.99,2.1-5.78,2.36-4.79,5.74-8.52,10.15-11.18Z"/>
      <path class="cls-1" d="M101.28,120.48c-8.27,0-15.35-2.95-21.26-8.86-5.91-5.91-8.86-12.99-8.86-21.26v-30.29h34.89v-27.28h-34.89V0h-27.28v90.36c0,10.27,2.48,19.69,7.44,28.26,4.96,8.56,11.57,15.44,19.84,20.64,9.09,5.67,19.13,8.5,30.12,8.5h6.94v-27.46c-.95.12-5.99.18-6.94.18Z"/>
      <path class="cls-1" d="M614.18,120.48c-8.27,0-15.35-2.95-21.26-8.86-5.91-5.91-8.86-12.99-8.86-21.26v-30.29h34.89v-27.28h-34.89V0h-27.28v90.36c0,10.27,2.48,19.69,7.44,28.26,4.96,8.56,11.57,15.44,19.84,20.64,9.09,5.67,19.13,8.5,30.12,8.5h6.94v-27.46c-.95.12-5.99.18-6.94.18Z"/>
    </g>
  </g>
</svg>